<?xml version="1.0" encoding="utf-8" standalone="no"?>
<!DOCTYPE svg PUBLIC "-//W3C//DTD SVG 1.1//EN"
  "http://www.w3.org/Graphics/SVG/1.1/DTD/svg11.dtd">
<svg xmlns:xlink="http://www.w3.org/1999/xlink" width="453.772274pt" height="310.169121pt" viewBox="0 0 453.772274 310.169121" xmlns="http://www.w3.org/2000/svg" version="1.1">
 <metadata>
  <rdf:RDF xmlns:dc="http://purl.org/dc/elements/1.1/" xmlns:cc="http://creativecommons.org/ns#" xmlns:rdf="http://www.w3.org/1999/02/22-rdf-syntax-ns#">
   <cc:Work>
    <dc:type rdf:resource="http://purl.org/dc/dcmitype/StillImage"/>
    <dc:date>2024-01-31T15:04:37.713718</dc:date>
    <dc:format>image/svg+xml</dc:format>
    <dc:creator>
     <cc:Agent>
      <dc:title>Matplotlib v3.7.2, https://matplotlib.org/</dc:title>
     </cc:Agent>
    </dc:creator>
   </cc:Work>
  </rdf:RDF>
 </metadata>
 <defs>
  <style type="text/css">*{stroke-linejoin: round; stroke-linecap: butt}</style>
 </defs>
 <g id="figure_1">
  <g id="patch_1">
   <path d="M 0 310.169121 
L 453.772274 310.169121 
L 453.772274 0 
L 0 0 
z
" style="fill: #ffffff"/>
  </g>
  <g id="axes_1">
   <g id="patch_2">
    <path d="M 45.624476 273.312 
L 331.320476 273.312 
L 331.320476 7.2 
L 45.624476 7.2 
z
" style="fill: #ffffff"/>
   </g>
   <g id="matplotlib.axis_1">
    <g id="xtick_1">
     <g id="line2d_1">
      <path d="M 53.310175 273.312 
L 53.310175 7.2 
" clip-path="url(#p91ed9ec7ca)" style="fill: none; stroke: #cccccc; stroke-width: 0.8; stroke-linecap: round"/>
     </g>
     <g id="text_1">
      <!-- $\mathdefault{0}$ -->
      <g style="fill: #262626" transform="translate(50.981376 287.700283) scale(0.088 -0.088)">
       <defs>
        <path id="CMR17-30" d="M 2688 2025 
C 2688 2416 2682 3080 2413 3591 
C 2176 4039 1798 4198 1466 4198 
C 1158 4198 768 4058 525 3597 
C 269 3118 243 2524 243 2025 
C 243 1661 250 1106 448 619 
C 723 -39 1216 -128 1466 -128 
C 1760 -128 2208 -7 2470 600 
C 2662 1042 2688 1559 2688 2025 
z
M 1466 -26 
C 1056 -26 813 325 723 812 
C 653 1188 653 1738 653 2096 
C 653 2588 653 2997 736 3387 
C 858 3929 1216 4096 1466 4096 
C 1728 4096 2067 3923 2189 3400 
C 2272 3036 2278 2607 2278 2096 
C 2278 1680 2278 1169 2202 792 
C 2067 95 1690 -26 1466 -26 
z
" transform="scale(0.015625)"/>
       </defs>
       <use xlink:href="#CMR17-30" transform="scale(0.996264)"/>
      </g>
     </g>
    </g>
    <g id="xtick_2">
     <g id="line2d_2">
      <path d="M 106.314999 273.312 
L 106.314999 7.2 
" clip-path="url(#p91ed9ec7ca)" style="fill: none; stroke: #cccccc; stroke-width: 0.8; stroke-linecap: round"/>
     </g>
     <g id="text_2">
      <!-- $\mathdefault{1}$ -->
      <g style="fill: #262626" transform="translate(103.9862 287.700283) scale(0.088 -0.088)">
       <defs>
        <path id="CMR17-31" d="M 1702 4058 
C 1702 4192 1696 4192 1606 4192 
C 1357 3916 979 3827 621 3827 
C 602 3827 570 3827 563 3808 
C 557 3795 557 3782 557 3648 
C 755 3648 1088 3686 1344 3839 
L 1344 461 
C 1344 236 1331 160 781 160 
L 589 160 
L 589 0 
C 896 0 1216 0 1523 0 
C 1830 0 2150 0 2458 0 
L 2458 160 
L 2266 160 
C 1715 160 1702 230 1702 458 
L 1702 4058 
z
" transform="scale(0.015625)"/>
       </defs>
       <use xlink:href="#CMR17-31" transform="scale(0.996264)"/>
      </g>
     </g>
    </g>
    <g id="xtick_3">
     <g id="line2d_3">
      <path d="M 159.319823 273.312 
L 159.319823 7.2 
" clip-path="url(#p91ed9ec7ca)" style="fill: none; stroke: #cccccc; stroke-width: 0.8; stroke-linecap: round"/>
     </g>
     <g id="text_3">
      <!-- $\mathdefault{2}$ -->
      <g style="fill: #262626" transform="translate(156.991024 287.700283) scale(0.088 -0.088)">
       <defs>
        <path id="CMR17-32" d="M 2669 989 
L 2554 989 
C 2490 536 2438 459 2413 420 
C 2381 369 1920 369 1830 369 
L 602 369 
C 832 619 1280 1072 1824 1597 
C 2214 1967 2669 2402 2669 3035 
C 2669 3790 2067 4224 1395 4224 
C 691 4224 262 3604 262 3030 
C 262 2780 448 2748 525 2748 
C 589 2748 781 2787 781 3010 
C 781 3207 614 3264 525 3264 
C 486 3264 448 3258 422 3245 
C 544 3790 915 4058 1306 4058 
C 1862 4058 2227 3617 2227 3035 
C 2227 2479 1901 2000 1536 1584 
L 262 146 
L 262 0 
L 2515 0 
L 2669 989 
z
" transform="scale(0.015625)"/>
       </defs>
       <use xlink:href="#CMR17-32" transform="scale(0.996264)"/>
      </g>
     </g>
    </g>
    <g id="xtick_4">
     <g id="line2d_4">
      <path d="M 212.324646 273.312 
L 212.324646 7.2 
" clip-path="url(#p91ed9ec7ca)" style="fill: none; stroke: #cccccc; stroke-width: 0.8; stroke-linecap: round"/>
     </g>
     <g id="text_4">
      <!-- $\mathdefault{3}$ -->
      <g style="fill: #262626" transform="translate(209.995847 287.700283) scale(0.088 -0.088)">
       <defs>
        <path id="CMR17-33" d="M 1414 2157 
C 1984 2157 2234 1662 2234 1090 
C 2234 320 1824 25 1453 25 
C 1114 25 563 194 390 693 
C 422 680 454 680 486 680 
C 640 680 755 782 755 948 
C 755 1133 614 1216 486 1216 
C 378 1216 211 1165 211 926 
C 211 335 787 -128 1466 -128 
C 2176 -128 2720 430 2720 1085 
C 2720 1707 2208 2157 1600 2227 
C 2086 2328 2554 2756 2554 3329 
C 2554 3820 2048 4179 1472 4179 
C 890 4179 378 3829 378 3329 
C 378 3110 544 3072 627 3072 
C 762 3072 877 3155 877 3321 
C 877 3486 762 3569 627 3569 
C 602 3569 570 3569 544 3557 
C 730 3959 1235 4032 1459 4032 
C 1683 4032 2106 3925 2106 3320 
C 2106 3143 2080 2828 1862 2550 
C 1670 2304 1453 2304 1242 2284 
C 1210 2284 1062 2269 1037 2269 
C 992 2263 966 2257 966 2208 
C 966 2163 973 2157 1101 2157 
L 1414 2157 
z
" transform="scale(0.015625)"/>
       </defs>
       <use xlink:href="#CMR17-33" transform="scale(0.996264)"/>
      </g>
     </g>
    </g>
    <g id="xtick_5">
     <g id="line2d_5">
      <path d="M 265.32947 273.312 
L 265.32947 7.2 
" clip-path="url(#p91ed9ec7ca)" style="fill: none; stroke: #cccccc; stroke-width: 0.8; stroke-linecap: round"/>
     </g>
     <g id="text_5">
      <!-- $\mathdefault{4}$ -->
      <g style="fill: #262626" transform="translate(263.000671 287.700283) scale(0.088 -0.088)">
       <defs>
        <path id="CMR17-34" d="M 2150 4122 
C 2150 4256 2144 4256 2029 4256 
L 128 1254 
L 128 1088 
L 1779 1088 
L 1779 457 
C 1779 224 1766 160 1318 160 
L 1197 160 
L 1197 0 
C 1402 0 1747 0 1965 0 
C 2182 0 2528 0 2733 0 
L 2733 160 
L 2611 160 
C 2163 160 2150 224 2150 457 
L 2150 1088 
L 2803 1088 
L 2803 1254 
L 2150 1254 
L 2150 4122 
z
M 1798 3703 
L 1798 1254 
L 256 1254 
L 1798 3703 
z
" transform="scale(0.015625)"/>
       </defs>
       <use xlink:href="#CMR17-34" transform="scale(0.996264)"/>
      </g>
     </g>
    </g>
    <g id="xtick_6">
     <g id="line2d_6">
      <path d="M 318.334294 273.312 
L 318.334294 7.2 
" clip-path="url(#p91ed9ec7ca)" style="fill: none; stroke: #cccccc; stroke-width: 0.8; stroke-linecap: round"/>
     </g>
     <g id="text_6">
      <!-- $\mathdefault{5}$ -->
      <g style="fill: #262626" transform="translate(316.005495 287.700283) scale(0.088 -0.088)">
       <defs>
        <path id="CMR17-35" d="M 730 3692 
C 794 3666 1056 3584 1325 3584 
C 1920 3584 2246 3911 2432 4100 
C 2432 4157 2432 4192 2394 4192 
C 2387 4192 2374 4192 2323 4163 
C 2099 4058 1837 3973 1517 3973 
C 1325 3973 1037 3999 723 4139 
C 653 4171 640 4171 634 4171 
C 602 4171 595 4164 595 4037 
L 595 2203 
C 595 2089 595 2057 659 2057 
C 691 2057 704 2070 736 2114 
C 941 2401 1222 2522 1542 2522 
C 1766 2522 2246 2382 2246 1289 
C 2246 1085 2246 715 2054 421 
C 1894 159 1645 25 1370 25 
C 947 25 518 320 403 814 
C 429 807 480 795 506 795 
C 589 795 749 840 749 1038 
C 749 1210 627 1280 506 1280 
C 358 1280 262 1190 262 1011 
C 262 454 704 -128 1382 -128 
C 2042 -128 2669 440 2669 1264 
C 2669 2030 2170 2624 1549 2624 
C 1222 2624 947 2503 730 2274 
L 730 3692 
z
" transform="scale(0.015625)"/>
       </defs>
       <use xlink:href="#CMR17-35" transform="scale(0.996264)"/>
      </g>
     </g>
    </g>
    <g id="text_7">
     <!-- Time since injection start (days) -->
     <g style="fill: #262626" transform="translate(121.927008 300.578094) scale(0.096 -0.096)">
      <defs>
       <path id="CMSS17-54" d="M 2317 3968 
L 2848 3968 
C 2925 3968 3002 3968 3078 3968 
L 3878 3968 
L 3878 4376 
L 218 4376 
L 218 3968 
L 1018 3968 
C 1094 3968 1171 3968 1248 3968 
L 1779 3968 
L 1779 -32 
L 2317 -32 
L 2317 3968 
z
" transform="scale(0.015625)"/>
       <path id="CMSS17-69" d="M 979 4183 
L 442 4183 
L 442 3648 
L 979 3648 
L 979 4183 
z
M 947 2739 
L 474 2739 
L 474 0 
L 947 0 
L 947 2739 
z
" transform="scale(0.015625)"/>
       <path id="CMSS17-6d" d="M 4288 1877 
C 4288 2308 4179 2816 3462 2816 
C 2982 2816 2694 2516 2566 2331 
C 2451 2670 2182 2816 1798 2816 
C 1363 2816 1088 2568 941 2389 
L 941 2758 
L 474 2758 
L 474 0 
L 960 0 
L 960 1559 
C 960 1939 1101 2428 1555 2428 
C 2138 2428 2138 2016 2138 1829 
L 2138 0 
L 2624 0 
L 2624 1559 
C 2624 1939 2765 2428 3219 2428 
C 3802 2428 3802 2016 3802 1829 
L 3802 0 
L 4288 0 
L 4288 1877 
z
" transform="scale(0.015625)"/>
       <path id="CMSS17-65" d="M 2502 1377 
C 2502 1590 2490 2003 2285 2345 
C 2061 2713 1696 2816 1421 2816 
C 755 2816 192 2188 192 1375 
C 192 582 774 -64 1510 -64 
C 1798 -64 2150 19 2470 248 
C 2470 274 2458 414 2451 420 
C 2451 433 2432 630 2432 656 
C 2125 407 1773 325 1517 325 
C 1107 325 666 667 646 1377 
L 2502 1377 
z
M 698 1728 
C 781 2084 1062 2421 1421 2421 
C 1517 2421 1965 2421 2080 1728 
L 698 1728 
z
" transform="scale(0.015625)"/>
       <path id="CMSS17-73" d="M 2061 2627 
C 1683 2807 1389 2807 1197 2807 
C 742 2807 198 2648 198 2003 
C 198 1359 902 1218 1094 1179 
C 1389 1122 1715 1058 1715 740 
C 1715 337 1254 337 1171 337 
C 915 337 563 407 243 638 
L 166 210 
C 531 0 883 -64 1178 -64 
C 1965 -64 2163 416 2163 781 
C 2163 1094 1984 1305 1862 1401 
C 1651 1568 1574 1587 1050 1696 
C 960 1709 646 1779 646 2066 
C 646 2432 1050 2432 1139 2432 
C 1555 2432 1811 2303 1984 2208 
L 2061 2627 
z
" transform="scale(0.015625)"/>
       <path id="CMSS17-6e" d="M 2618 1877 
C 2618 2283 2522 2816 1798 2816 
C 1389 2816 1120 2606 941 2389 
L 941 2758 
L 474 2758 
L 474 0 
L 960 0 
L 960 1559 
C 960 1964 1114 2428 1549 2428 
C 2112 2428 2131 2048 2131 1829 
L 2131 0 
L 2618 0 
L 2618 1877 
z
" transform="scale(0.015625)"/>
       <path id="CMSS17-63" d="M 2464 2541 
C 2464 2585 2170 2714 2093 2739 
C 1882 2816 1613 2816 1542 2816 
C 710 2816 211 2093 211 1363 
C 211 595 768 -64 1517 -64 
C 1946 -64 2253 76 2502 242 
L 2464 664 
C 2189 453 1869 337 1523 337 
C 1024 337 698 774 698 1369 
C 698 1831 909 2414 1549 2414 
C 1901 2414 2099 2343 2394 2145 
L 2464 2541 
z
" transform="scale(0.015625)"/>
       <path id="CMSS17-6a" d="M 1114 4224 
L 576 4224 
L 576 3689 
L 1114 3689 
L 1114 4224 
z
M -371 -1064 
C -166 -1191 83 -1280 352 -1280 
C 755 -1280 1114 -935 1114 -366 
L 1114 2767 
L 640 2767 
L 640 -425 
C 640 -815 346 -873 179 -873 
C 38 -873 -128 -828 -275 -675 
L -371 -1064 
z
" transform="scale(0.015625)"/>
       <path id="CMSS17-74" d="M 1069 2368 
L 1901 2368 
L 1901 2737 
L 1069 2737 
L 1069 3520 
L 614 3520 
L 614 2737 
L 109 2737 
L 109 2368 
L 602 2368 
L 602 749 
C 602 384 685 -64 1107 -64 
C 1427 -64 1722 25 2003 172 
L 1901 548 
C 1747 414 1562 337 1363 337 
C 1082 337 1069 696 1069 856 
L 1069 2368 
z
" transform="scale(0.015625)"/>
       <path id="CMSS17-6f" d="M 2829 1356 
C 2829 2176 2221 2816 1504 2816 
C 768 2816 173 2157 173 1356 
C 173 544 787 -64 1498 -64 
C 2227 -64 2829 563 2829 1356 
z
M 1504 337 
C 1050 337 659 709 659 1408 
C 659 2151 1114 2427 1498 2427 
C 1914 2427 2342 2126 2342 1408 
C 2342 683 1926 337 1504 337 
z
" transform="scale(0.015625)"/>
       <path id="CMSS17-61" d="M 2406 1791 
C 2406 2392 1978 2808 1402 2808 
C 1120 2808 813 2757 461 2553 
L 499 2135 
C 659 2248 934 2432 1395 2432 
C 1722 2432 1920 2180 1920 1782 
L 1920 1536 
C 896 1536 256 1238 256 726 
C 256 461 416 -64 947 -64 
C 1043 -64 1562 -64 1933 217 
L 1933 -19 
L 2406 -19 
L 2406 1791 
z
M 1920 816 
C 1920 701 1920 548 1728 434 
C 1562 325 1350 325 1261 325 
C 941 325 723 511 723 744 
C 723 1211 1722 1211 1920 1211 
L 1920 816 
z
" transform="scale(0.015625)"/>
       <path id="CMSS17-72" d="M 954 1363 
C 954 1965 1395 2368 1958 2368 
L 1958 2789 
C 1549 2789 1165 2585 934 2253 
L 934 2758 
L 480 2758 
L 480 0 
L 954 0 
L 954 1363 
z
" transform="scale(0.015625)"/>
       <path id="CMSS17-28" d="M 1613 4768 
C 1267 4417 474 3601 474 1588 
C 474 -433 1267 -1243 1613 -1600 
L 2003 -1600 
C 1216 -784 960 357 960 1581 
C 960 2798 1203 3946 2003 4768 
L 1613 4768 
z
" transform="scale(0.015625)"/>
       <path id="CMSS17-64" d="M 2611 4416 
L 2138 4416 
L 2138 2438 
C 1939 2603 1613 2756 1254 2756 
C 672 2756 211 2131 211 1347 
C 211 562 666 -64 1235 -64 
C 1677 -64 1971 172 2125 306 
L 2125 -13 
L 2611 -13 
L 2611 4416 
z
M 2125 836 
C 2125 747 2125 653 1926 482 
C 1798 375 1645 325 1498 325 
C 1152 325 698 576 698 1340 
C 698 2134 1210 2368 1562 2368 
C 1798 2368 1990 2254 2125 2065 
L 2125 836 
z
" transform="scale(0.015625)"/>
       <path id="CMSS17-79" d="M 2675 2752 
L 2176 2752 
C 1632 1294 1446 702 1434 383 
L 1427 383 
C 1408 696 1126 1460 902 2007 
L 602 2752 
L 83 2752 
L 1216 13 
C 1146 -178 1043 -465 1011 -529 
C 870 -885 774 -885 672 -885 
C 646 -885 442 -885 211 -809 
L 250 -1229 
C 410 -1261 570 -1280 685 -1280 
C 845 -1280 1165 -1280 1459 -497 
L 2675 2752 
z
" transform="scale(0.015625)"/>
       <path id="CMSS17-29" d="M 723 -1600 
C 1069 -1249 1862 -433 1862 1581 
C 1862 3601 1069 4411 723 4768 
L 333 4768 
C 1120 3952 1376 2811 1376 1588 
C 1376 370 1133 -778 333 -1600 
L 723 -1600 
z
" transform="scale(0.015625)"/>
      </defs>
      <use xlink:href="#CMSS17-54" transform="scale(0.996264)"/>
      <use xlink:href="#CMSS17-69" transform="translate(63.819454 0) scale(0.996264)"/>
      <use xlink:href="#CMSS17-6d" transform="translate(86.000177 0) scale(0.996264)"/>
      <use xlink:href="#CMSS17-65" transform="translate(160.229431 0) scale(0.996264)"/>
      <use xlink:href="#CMSS17-73" transform="translate(233.097366 0) scale(0.996264)"/>
      <use xlink:href="#CMSS17-69" transform="translate(269.010908 0) scale(0.996264)"/>
      <use xlink:href="#CMSS17-6e" transform="translate(291.191631 0) scale(0.996264)"/>
      <use xlink:href="#CMSS17-63" transform="translate(339.396574 0) scale(0.996264)"/>
      <use xlink:href="#CMSS17-65" transform="translate(381.035396 0) scale(0.996264)"/>
      <use xlink:href="#CMSS17-69" transform="translate(453.903331 0) scale(0.996264)"/>
      <use xlink:href="#CMSS17-6e" transform="translate(476.084054 0) scale(0.996264)"/>
      <use xlink:href="#CMSS17-6a" transform="translate(524.288997 0) scale(0.996264)"/>
      <use xlink:href="#CMSS17-65" transform="translate(549.072083 0) scale(0.996264)"/>
      <use xlink:href="#CMSS17-63" transform="translate(590.710905 0) scale(0.996264)"/>
      <use xlink:href="#CMSS17-74" transform="translate(632.349727 0) scale(0.996264)"/>
      <use xlink:href="#CMSS17-69" transform="translate(666.181294 0) scale(0.996264)"/>
      <use xlink:href="#CMSS17-6f" transform="translate(688.362017 0) scale(0.996264)"/>
      <use xlink:href="#CMSS17-6e" transform="translate(735.205641 0) scale(0.996264)"/>
      <use xlink:href="#CMSS17-73" transform="translate(814.639696 0) scale(0.996264)"/>
      <use xlink:href="#CMSS17-74" transform="translate(850.553238 0) scale(0.996264)"/>
      <use xlink:href="#CMSS17-61" transform="translate(884.384805 0) scale(0.996264)"/>
      <use xlink:href="#CMSS17-72" transform="translate(926.704272 0) scale(0.996264)"/>
      <use xlink:href="#CMSS17-74" transform="translate(958.614044 0) scale(0.996264)"/>
      <use xlink:href="#CMSS17-28" transform="translate(1023.674724 0) scale(0.996264)"/>
      <use xlink:href="#CMSS17-64" transform="translate(1060.108638 0) scale(0.996264)"/>
      <use xlink:href="#CMSS17-61" transform="translate(1108.313581 0) scale(0.996264)"/>
      <use xlink:href="#CMSS17-79" transform="translate(1150.633048 0) scale(0.996264)"/>
      <use xlink:href="#CMSS17-73" transform="translate(1193.63319 0) scale(0.996264)"/>
      <use xlink:href="#CMSS17-29" transform="translate(1229.546731 0) scale(0.996264)"/>
     </g>
    </g>
   </g>
   <g id="matplotlib.axis_2">
    <g id="ytick_1">
     <g id="line2d_7">
      <path d="M 45.624476 258.280817 
L 331.320476 258.280817 
" clip-path="url(#p91ed9ec7ca)" style="fill: none; stroke: #cccccc; stroke-width: 0.8; stroke-linecap: round"/>
     </g>
     <g id="text_8">
      <!-- $\mathdefault{77.5}$ -->
      <g style="fill: #262626" transform="translate(20.764125 261.324958) scale(0.088 -0.088)">
       <defs>
        <path id="CMR17-37" d="M 2886 3941 
L 2886 4081 
L 1382 4081 
C 634 4081 621 4165 595 4288 
L 480 4288 
L 294 3094 
L 410 3094 
C 429 3215 474 3540 550 3661 
C 589 3712 1062 3712 1171 3712 
L 2579 3712 
L 1869 2661 
C 1395 1954 1069 999 1069 165 
C 1069 89 1069 -128 1299 -128 
C 1530 -128 1530 89 1530 171 
L 1530 465 
C 1530 1508 1709 2196 2003 2636 
L 2886 3941 
z
" transform="scale(0.015625)"/>
        <path id="CMMI12-3a" d="M 1178 307 
C 1178 492 1024 619 870 619 
C 685 619 557 466 557 313 
C 557 128 710 0 864 0 
C 1050 0 1178 153 1178 307 
z
" transform="scale(0.015625)"/>
       </defs>
       <use xlink:href="#CMR17-37" transform="scale(0.996264)"/>
       <use xlink:href="#CMR17-37" transform="translate(45.690477 0) scale(0.996264)"/>
       <use xlink:href="#CMMI12-3a" transform="translate(91.380954 0) scale(0.996264)"/>
       <use xlink:href="#CMR17-35" transform="translate(118.478131 0) scale(0.996264)"/>
      </g>
     </g>
    </g>
    <g id="ytick_2">
     <g id="line2d_8">
      <path d="M 45.624476 223.796543 
L 331.320476 223.796543 
" clip-path="url(#p91ed9ec7ca)" style="fill: none; stroke: #cccccc; stroke-width: 0.8; stroke-linecap: round"/>
     </g>
     <g id="text_9">
      <!-- $\mathdefault{80.0}$ -->
      <g style="fill: #262626" transform="translate(20.764125 226.840684) scale(0.088 -0.088)">
       <defs>
        <path id="CMR17-38" d="M 1741 2264 
C 2144 2467 2554 2773 2554 3263 
C 2554 3841 1990 4179 1472 4179 
C 890 4179 378 3759 378 3180 
C 378 3021 416 2747 666 2505 
C 730 2442 998 2251 1171 2130 
C 883 1983 211 1634 211 934 
C 211 279 838 -128 1459 -128 
C 2144 -128 2720 362 2720 1010 
C 2720 1590 2330 1857 2074 2029 
L 1741 2264 
z
M 902 2822 
C 851 2854 595 3051 595 3351 
C 595 3739 998 4032 1459 4032 
C 1965 4032 2336 3676 2336 3262 
C 2336 2669 1670 2331 1638 2331 
C 1632 2331 1626 2331 1574 2370 
L 902 2822 
z
M 2080 1519 
C 2176 1449 2483 1240 2483 851 
C 2483 381 2010 25 1472 25 
C 890 25 448 438 448 940 
C 448 1443 838 1862 1280 2060 
L 2080 1519 
z
" transform="scale(0.015625)"/>
       </defs>
       <use xlink:href="#CMR17-38" transform="scale(0.996264)"/>
       <use xlink:href="#CMR17-30" transform="translate(45.690477 0) scale(0.996264)"/>
       <use xlink:href="#CMMI12-3a" transform="translate(91.380954 0) scale(0.996264)"/>
       <use xlink:href="#CMR17-30" transform="translate(118.478131 0) scale(0.996264)"/>
      </g>
     </g>
    </g>
    <g id="ytick_3">
     <g id="line2d_9">
      <path d="M 45.624476 189.312269 
L 331.320476 189.312269 
" clip-path="url(#p91ed9ec7ca)" style="fill: none; stroke: #cccccc; stroke-width: 0.8; stroke-linecap: round"/>
     </g>
     <g id="text_10">
      <!-- $\mathdefault{82.5}$ -->
      <g style="fill: #262626" transform="translate(20.764125 192.35641) scale(0.088 -0.088)">
       <use xlink:href="#CMR17-38" transform="scale(0.996264)"/>
       <use xlink:href="#CMR17-32" transform="translate(45.690477 0) scale(0.996264)"/>
       <use xlink:href="#CMMI12-3a" transform="translate(91.380954 0) scale(0.996264)"/>
       <use xlink:href="#CMR17-35" transform="translate(118.478131 0) scale(0.996264)"/>
      </g>
     </g>
    </g>
    <g id="ytick_4">
     <g id="line2d_10">
      <path d="M 45.624476 154.827995 
L 331.320476 154.827995 
" clip-path="url(#p91ed9ec7ca)" style="fill: none; stroke: #cccccc; stroke-width: 0.8; stroke-linecap: round"/>
     </g>
     <g id="text_11">
      <!-- $\mathdefault{85.0}$ -->
      <g style="fill: #262626" transform="translate(20.764125 157.872136) scale(0.088 -0.088)">
       <use xlink:href="#CMR17-38" transform="scale(0.996264)"/>
       <use xlink:href="#CMR17-35" transform="translate(45.690477 0) scale(0.996264)"/>
       <use xlink:href="#CMMI12-3a" transform="translate(91.380954 0) scale(0.996264)"/>
       <use xlink:href="#CMR17-30" transform="translate(118.478131 0) scale(0.996264)"/>
      </g>
     </g>
    </g>
    <g id="ytick_5">
     <g id="line2d_11">
      <path d="M 45.624476 120.343721 
L 331.320476 120.343721 
" clip-path="url(#p91ed9ec7ca)" style="fill: none; stroke: #cccccc; stroke-width: 0.8; stroke-linecap: round"/>
     </g>
     <g id="text_12">
      <!-- $\mathdefault{87.5}$ -->
      <g style="fill: #262626" transform="translate(20.764125 123.387862) scale(0.088 -0.088)">
       <use xlink:href="#CMR17-38" transform="scale(0.996264)"/>
       <use xlink:href="#CMR17-37" transform="translate(45.690477 0) scale(0.996264)"/>
       <use xlink:href="#CMMI12-3a" transform="translate(91.380954 0) scale(0.996264)"/>
       <use xlink:href="#CMR17-35" transform="translate(118.478131 0) scale(0.996264)"/>
      </g>
     </g>
    </g>
    <g id="ytick_6">
     <g id="line2d_12">
      <path d="M 45.624476 85.859447 
L 331.320476 85.859447 
" clip-path="url(#p91ed9ec7ca)" style="fill: none; stroke: #cccccc; stroke-width: 0.8; stroke-linecap: round"/>
     </g>
     <g id="text_13">
      <!-- $\mathdefault{90.0}$ -->
      <g style="fill: #262626" transform="translate(20.764125 88.903588) scale(0.088 -0.088)">
       <defs>
        <path id="CMR17-39" d="M 2253 1864 
C 2253 464 1670 31 1190 31 
C 1043 31 685 31 538 294 
C 704 268 826 357 826 518 
C 826 692 685 749 595 749 
C 538 749 365 723 365 506 
C 365 71 742 -128 1203 -128 
C 1939 -128 2688 674 2688 2073 
C 2688 3817 1971 4179 1485 4179 
C 851 4179 243 3628 243 2778 
C 243 1991 762 1408 1414 1408 
C 1952 1408 2189 1903 2253 2112 
L 2253 1864 
z
M 1427 1510 
C 1254 1510 1011 1542 813 1922 
C 678 2169 678 2461 678 2771 
C 678 3146 678 3405 858 3684 
C 947 3817 1114 4032 1485 4032 
C 2240 4032 2240 2885 2240 2632 
C 2240 2182 2035 1510 1427 1510 
z
" transform="scale(0.015625)"/>
       </defs>
       <use xlink:href="#CMR17-39" transform="scale(0.996264)"/>
       <use xlink:href="#CMR17-30" transform="translate(45.690477 0) scale(0.996264)"/>
       <use xlink:href="#CMMI12-3a" transform="translate(91.380954 0) scale(0.996264)"/>
       <use xlink:href="#CMR17-30" transform="translate(118.478131 0) scale(0.996264)"/>
      </g>
     </g>
    </g>
    <g id="ytick_7">
     <g id="line2d_13">
      <path d="M 45.624476 51.375173 
L 331.320476 51.375173 
" clip-path="url(#p91ed9ec7ca)" style="fill: none; stroke: #cccccc; stroke-width: 0.8; stroke-linecap: round"/>
     </g>
     <g id="text_14">
      <!-- $\mathdefault{92.5}$ -->
      <g style="fill: #262626" transform="translate(20.764125 54.419314) scale(0.088 -0.088)">
       <use xlink:href="#CMR17-39" transform="scale(0.996264)"/>
       <use xlink:href="#CMR17-32" transform="translate(45.690477 0) scale(0.996264)"/>
       <use xlink:href="#CMMI12-3a" transform="translate(91.380954 0) scale(0.996264)"/>
       <use xlink:href="#CMR17-35" transform="translate(118.478131 0) scale(0.996264)"/>
      </g>
     </g>
    </g>
    <g id="ytick_8">
     <g id="line2d_14">
      <path d="M 45.624476 16.890899 
L 331.320476 16.890899 
" clip-path="url(#p91ed9ec7ca)" style="fill: none; stroke: #cccccc; stroke-width: 0.8; stroke-linecap: round"/>
     </g>
     <g id="text_15">
      <!-- $\mathdefault{95.0}$ -->
      <g style="fill: #262626" transform="translate(20.764125 19.93504) scale(0.088 -0.088)">
       <use xlink:href="#CMR17-39" transform="scale(0.996264)"/>
       <use xlink:href="#CMR17-35" transform="translate(45.690477 0) scale(0.996264)"/>
       <use xlink:href="#CMMI12-3a" transform="translate(91.380954 0) scale(0.996264)"/>
       <use xlink:href="#CMR17-30" transform="translate(118.478131 0) scale(0.996264)"/>
      </g>
     </g>
    </g>
    <g id="text_16">
     <!-- Bottom hole pressure (bar) -->
     <g style="fill: #262626" transform="translate(14.373098 195.873682) rotate(-90) scale(0.096 -0.096)">
      <defs>
       <path id="CMSS17-42" d="M 570 4416 
L 570 0 
L 2163 0 
C 3034 0 3667 574 3667 1200 
C 3667 1685 3251 2176 2502 2317 
C 3334 2558 3501 3040 3501 3313 
C 3501 3883 2874 4416 1997 4416 
L 570 4416 
z
M 1088 2496 
L 1088 4059 
L 1824 4059 
C 2483 4059 3002 3724 3002 3306 
C 3002 2926 2592 2496 1766 2496 
L 1088 2496 
z
M 1088 357 
L 1088 2107 
L 1939 2107 
C 2630 2107 3162 1679 3162 1206 
C 3162 772 2694 357 1984 357 
L 1088 357 
z
" transform="scale(0.015625)"/>
       <path id="CMSS17-68" d="M 2618 1891 
C 2618 2292 2522 2820 1798 2820 
C 1395 2820 1133 2623 947 2407 
L 947 4448 
L 474 4448 
L 474 32 
L 960 32 
L 960 1573 
C 960 1973 1114 2432 1549 2432 
C 2112 2432 2131 2056 2131 1839 
L 2131 32 
L 2618 32 
L 2618 1891 
z
" transform="scale(0.015625)"/>
       <path id="CMSS17-6c" d="M 947 4416 
L 474 4416 
L 474 0 
L 947 0 
L 947 4416 
z
" transform="scale(0.015625)"/>
       <path id="CMSS17-70" d="M 966 333 
C 1178 129 1466 -5 1773 -5 
C 2368 -5 2880 603 2880 1412 
C 2880 2159 2496 2816 1946 2816 
C 1626 2816 1242 2702 954 2472 
L 954 2765 
L 480 2765 
L 480 -1216 
L 966 -1216 
L 966 333 
z
M 966 2100 
C 1018 2176 1235 2415 1587 2415 
C 2035 2415 2394 1960 2394 1412 
C 2394 787 1958 384 1530 384 
C 1402 384 1267 415 1139 523 
C 966 674 966 768 966 857 
L 966 2100 
z
" transform="scale(0.015625)"/>
       <path id="CMSS17-75" d="M 2618 2739 
L 2131 2739 
L 2131 972 
C 2131 498 1786 306 1421 306 
C 998 306 960 447 960 709 
L 960 2739 
L 474 2739 
L 474 678 
C 474 179 646 -64 1088 -64 
C 1306 -64 1798 -13 2144 306 
L 2144 0 
L 2618 0 
L 2618 2739 
z
" transform="scale(0.015625)"/>
       <path id="CMSS17-62" d="M 954 4416 
L 480 4416 
L 480 -13 
L 966 -13 
L 966 274 
C 1210 38 1504 -64 1766 -64 
C 2381 -64 2880 549 2880 1352 
C 2880 2086 2496 2756 1926 2756 
C 1523 2756 1165 2591 954 2419 
L 954 4416 
z
M 966 2046 
C 1107 2222 1306 2368 1587 2368 
C 1965 2368 2394 2097 2394 1352 
C 2394 558 1882 325 1530 325 
C 1402 325 1267 356 1139 464 
C 966 615 966 709 966 797 
L 966 2046 
z
" transform="scale(0.015625)"/>
      </defs>
      <use xlink:href="#CMSS17-42" transform="scale(0.996264)"/>
      <use xlink:href="#CMSS17-6f" transform="translate(62.33804 0) scale(0.996264)"/>
      <use xlink:href="#CMSS17-74" transform="translate(109.181664 0) scale(0.996264)"/>
      <use xlink:href="#CMSS17-74" transform="translate(143.01323 0) scale(0.996264)"/>
      <use xlink:href="#CMSS17-6f" transform="translate(176.844797 0) scale(0.996264)"/>
      <use xlink:href="#CMSS17-6d" transform="translate(223.688421 0) scale(0.996264)"/>
      <use xlink:href="#CMSS17-68" transform="translate(329.146788 0) scale(0.996264)"/>
      <use xlink:href="#CMSS17-6f" transform="translate(377.351731 0) scale(0.996264)"/>
      <use xlink:href="#CMSS17-6c" transform="translate(424.195354 0) scale(0.996264)"/>
      <use xlink:href="#CMSS17-65" transform="translate(446.376078 0) scale(0.996264)"/>
      <use xlink:href="#CMSS17-70" transform="translate(519.244012 0) scale(0.996264)"/>
      <use xlink:href="#CMSS17-72" transform="translate(564.846502 0) scale(0.996264)"/>
      <use xlink:href="#CMSS17-65" transform="translate(596.756274 0) scale(0.996264)"/>
      <use xlink:href="#CMSS17-73" transform="translate(638.395096 0) scale(0.996264)"/>
      <use xlink:href="#CMSS17-73" transform="translate(674.308638 0) scale(0.996264)"/>
      <use xlink:href="#CMSS17-75" transform="translate(710.22218 0) scale(0.996264)"/>
      <use xlink:href="#CMSS17-72" transform="translate(758.427123 0) scale(0.996264)"/>
      <use xlink:href="#CMSS17-65" transform="translate(790.336896 0) scale(0.996264)"/>
      <use xlink:href="#CMSS17-28" transform="translate(863.204831 0) scale(0.996264)"/>
      <use xlink:href="#CMSS17-62" transform="translate(899.638745 0) scale(0.996264)"/>
      <use xlink:href="#CMSS17-61" transform="translate(947.843688 0) scale(0.996264)"/>
      <use xlink:href="#CMSS17-72" transform="translate(990.163155 0) scale(0.996264)"/>
      <use xlink:href="#CMSS17-29" transform="translate(1022.072927 0) scale(0.996264)"/>
     </g>
    </g>
   </g>
   <g id="line2d_15">
    <path d="M 58.610658 167.859363 
L 63.91114 177.790219 
L 69.211623 186.296894 
L 74.512105 193.384755 
L 79.812587 199.220604 
L 85.113071 204.079953 
L 90.413551 208.198323 
L 95.714035 211.7462 
L 101.014515 214.84808 
L 106.314999 217.596256 
L 111.615483 220.059133 
L 116.915966 222.287224 
L 122.216444 224.319153 
L 127.516927 226.185648 
L 132.817411 227.910703 
L 138.117894 229.513473 
L 143.418378 231.010584 
L 148.718855 232.41498 
L 154.019339 233.736765 
L 159.319823 234.985515 
L 164.6203 236.169123 
L 169.92079 237.294113 
L 175.221267 238.366169 
L 180.521757 239.390448 
L 185.822235 240.370947 
L 191.122712 241.311982 
L 196.423202 242.216184 
L 201.723679 243.087131 
L 207.024169 243.927243 
L 212.324646 244.738625 
L 217.625124 245.523487 
L 222.925614 246.283935 
L 228.226091 247.021335 
L 233.526581 247.737688 
L 238.827058 248.433835 
L 244.127536 249.111355 
L 249.428026 249.771511 
L 254.728503 250.414934 
L 260.028993 251.042992 
L 265.32947 251.656317 
L 270.629948 252.255961 
L 275.930425 252.842345 
L 281.230927 253.416522 
L 286.531405 253.978596 
L 291.831882 254.529726 
L 297.132359 255.070016 
L 302.432837 255.600203 
L 307.733339 256.120814 
L 313.033817 256.632164 
L 318.334294 257.134463 
" clip-path="url(#p91ed9ec7ca)" style="fill: none; stroke: #000000; stroke-width: 1.5; stroke-linecap: round"/>
   </g>
   <g id="line2d_16">
    <path d="M 58.610658 165.427321 
L 63.91114 160.568498 
L 69.211623 157.846631 
L 74.512105 161.770523 
L 79.812587 166.015915 
L 85.113071 168.432592 
L 90.413551 171.257592 
L 95.714035 175.004157 
L 101.014515 180.157119 
L 106.314999 185.065087 
L 111.615483 188.821125 
L 116.915966 193.653532 
L 122.216444 199.641976 
L 127.516927 204.348203 
L 132.817411 207.426405 
L 138.117894 210.356747 
L 143.418378 213.557656 
L 148.718855 216.855067 
L 154.019339 219.837502 
L 159.319823 222.418982 
L 164.6203 224.746102 
L 169.92079 226.900948 
L 175.221267 228.927299 
L 180.521757 230.850096 
L 185.822235 232.673549 
L 191.122712 234.396184 
L 196.423202 236.018107 
L 201.723679 237.543106 
L 207.024169 238.974338 
L 212.324646 240.316013 
L 217.625124 241.609173 
L 222.925614 242.925591 
L 228.226091 244.298205 
L 233.526581 245.459713 
L 238.827058 246.252784 
L 244.127536 247.466595 
L 249.428026 248.317442 
L 254.728503 249.846966 
L 260.028993 251.856689 
L 265.32947 253.103966 
L 270.629948 253.943342 
L 275.930425 254.662536 
L 281.230927 255.348054 
L 286.531405 256.024732 
L 291.831882 256.700884 
L 297.132359 257.378719 
L 302.432837 258.058134 
L 307.733339 258.734601 
L 313.033817 259.40949 
L 318.334294 260.078381 
" clip-path="url(#p91ed9ec7ca)" style="fill: none; stroke-dasharray: 11.1,4.8; stroke-dashoffset: 0; stroke: #b7d4ea; stroke-width: 3"/>
   </g>
   <g id="line2d_17">
    <path d="M 58.610658 156.242599 
L 63.91114 161.553207 
L 69.211623 172.92203 
L 74.512105 184.87124 
L 79.812587 193.179647 
L 85.113071 199.24523 
L 90.413551 204.639817 
L 95.714035 208.891313 
L 101.014515 212.448661 
L 106.314999 215.894353 
L 111.615483 219.373194 
L 116.915966 222.252391 
L 122.216444 224.748733 
L 127.516927 226.958724 
L 132.817411 228.921511 
L 138.117894 230.691187 
L 143.418378 232.305533 
L 148.718855 233.798224 
L 154.019339 235.191991 
L 159.319823 236.49978 
L 164.6203 237.740953 
L 169.92079 238.927086 
L 175.221267 240.067126 
L 180.521757 241.167701 
L 185.822235 242.23681 
L 191.122712 243.2774 
L 196.423202 244.290207 
L 201.723679 245.274495 
L 207.024169 246.229527 
L 212.324646 247.154671 
L 217.625124 248.050138 
L 222.925614 248.916455 
L 228.226091 249.754462 
L 233.526581 250.564792 
L 238.827058 251.348602 
L 244.127536 252.104735 
L 249.428026 252.83761 
L 254.728503 253.548174 
L 260.028993 254.23727 
L 265.32947 254.904477 
L 270.629948 255.552425 
L 275.930425 256.181115 
L 281.230927 256.793282 
L 286.531405 257.389664 
L 291.831882 257.970892 
L 297.132359 258.538017 
L 302.432837 259.091673 
L 307.733339 259.632594 
L 313.033817 260.161624 
L 318.334294 260.678446 
" clip-path="url(#p91ed9ec7ca)" style="fill: none; stroke-dasharray: 11.1,4.8; stroke-dashoffset: 0; stroke: #87bddc; stroke-width: 3"/>
   </g>
   <g id="line2d_18">
    <path d="M 58.610658 173.243531 
L 63.91114 183.090092 
L 69.211623 192.49676 
L 74.512105 199.905491 
L 79.812587 205.747022 
L 85.113071 210.485032 
L 90.413551 214.465751 
L 95.714035 217.871347 
L 101.014515 220.811687 
L 106.314999 223.408426 
L 111.615483 225.728811 
L 116.915966 227.821672 
L 122.216444 229.728789 
L 127.516927 231.481207 
L 132.817411 233.104392 
L 138.117894 234.620761 
L 143.418378 236.040944 
L 148.718855 237.371989 
L 154.019339 238.622634 
L 159.319823 239.801822 
L 164.6203 240.918603 
L 169.92079 241.981925 
L 175.221267 242.996837 
L 180.521757 243.968706 
L 185.822235 244.90006 
L 191.122712 245.796369 
L 196.423202 246.659949 
L 201.723679 247.492905 
L 207.024169 248.297973 
L 212.324646 249.076942 
L 217.625124 249.831812 
L 222.925614 250.565213 
L 228.226091 251.278935 
L 233.526581 251.974345 
L 238.827058 252.652707 
L 244.127536 253.314336 
L 249.428026 253.96018 
L 254.728503 254.5915 
L 260.028993 255.208403 
L 265.32947 255.81152 
L 270.629948 256.401798 
L 275.930425 256.979448 
L 281.230927 257.545416 
L 286.531405 258.100124 
L 291.831882 258.643992 
L 297.132359 259.177652 
L 302.432837 259.701104 
L 307.733339 260.214874 
L 313.033817 260.719594 
L 318.334294 261.216 
" clip-path="url(#p91ed9ec7ca)" style="fill: none; stroke-dasharray: 11.1,4.8; stroke-dashoffset: 0; stroke: #549fcd; stroke-width: 3"/>
   </g>
   <g id="line2d_19">
    <path d="M 58.610658 171.001022 
L 63.91114 180.093766 
L 69.211623 188.27652 
L 74.512105 195.109285 
L 79.812587 200.753917 
L 85.113071 205.46046 
L 90.413551 209.45223 
L 95.714035 212.898237 
L 101.014515 215.920872 
L 106.314999 218.604748 
L 111.615483 221.015532 
L 116.915966 223.20416 
L 122.216444 225.204728 
L 127.516927 227.048386 
L 132.817411 228.758498 
L 138.117894 230.351059 
L 143.418378 231.842066 
L 148.718855 233.244358 
L 154.019339 234.568143 
L 159.319823 235.821102 
L 164.6203 237.012498 
L 169.92079 238.147907 
L 175.221267 239.232802 
L 180.521757 240.271076 
L 185.822235 241.266624 
L 191.122712 242.222393 
L 196.423202 243.141223 
L 201.723679 244.026377 
L 207.024169 244.879959 
L 212.324646 245.704286 
L 217.625124 246.502198 
L 222.925614 247.275379 
L 228.226091 248.025302 
L 233.526581 248.753862 
L 238.827058 249.462322 
L 244.127536 250.151945 
L 249.428026 250.823782 
L 254.728503 251.478465 
L 260.028993 252.117363 
L 265.32947 252.741633 
L 270.629948 253.352011 
L 275.930425 253.94934 
L 281.230927 254.534251 
L 286.531405 255.10748 
L 291.831882 255.669344 
L 297.132359 256.220474 
L 302.432837 256.76129 
L 307.733339 257.292635 
L 313.033817 257.814719 
L 318.334294 258.327647 
" clip-path="url(#p91ed9ec7ca)" style="fill: none; stroke-dasharray: 11.1,4.8; stroke-dashoffset: 0; stroke: #2e7ebc; stroke-width: 3"/>
   </g>
   <g id="line2d_20">
    <path d="M 58.610658 37.107262 
L 63.91114 22.6394 
L 69.211623 19.296 
L 74.512105 21.101878 
L 79.812587 26.067306 
L 85.113071 32.981104 
L 90.413551 40.95654 
L 95.714035 49.369764 
L 101.014515 57.812034 
L 106.314999 66.02478 
L 111.615483 73.87393 
L 116.915966 81.287081 
L 122.216444 88.252446 
L 127.516927 94.780758 
L 132.817411 100.884542 
L 138.117894 106.599368 
L 143.418378 111.949755 
L 148.718855 116.967592 
L 154.019339 121.691394 
L 159.319823 126.143473 
L 164.6203 130.343613 
L 169.92079 134.320649 
L 175.221267 138.092156 
L 180.521757 141.675182 
L 185.822235 145.084988 
L 191.122712 148.335147 
L 196.423202 151.437974 
L 201.723679 154.400204 
L 207.024169 157.236885 
L 212.324646 159.957383 
L 217.625124 162.569066 
L 222.925614 165.078458 
L 228.226091 167.488295 
L 233.526581 169.809522 
L 238.827058 172.048137 
L 244.127536 174.20814 
L 249.428026 176.293845 
L 254.728503 178.309462 
L 260.028993 180.257095 
L 265.32947 182.14148 
L 270.629948 183.967774 
L 275.930425 185.738608 
L 281.230927 187.456718 
L 286.531405 189.12484 
L 291.831882 190.7455 
L 297.132359 192.318487 
L 302.432837 193.848853 
L 307.733339 195.340071 
L 313.033817 196.793298 
L 318.334294 198.210217 
" clip-path="url(#p91ed9ec7ca)" style="fill: none; stroke-dasharray: 3,4.95; stroke-dashoffset: 0; stroke: #cecece; stroke-width: 3"/>
   </g>
   <g id="line2d_21">
    <path d="M 58.610658 34.254796 
L 63.91114 44.834021 
L 69.211623 69.78871 
L 74.512105 92.537828 
L 79.812587 110.699532 
L 85.113071 125.03532 
L 90.413551 136.57063 
L 95.714035 146.082009 
L 101.014515 154.098908 
L 106.314999 160.976399 
L 111.615483 166.955161 
L 116.915966 172.207151 
L 122.216444 176.866232 
L 127.516927 181.031118 
L 132.817411 184.788102 
L 138.117894 188.197276 
L 143.418378 191.313784 
L 148.718855 194.18151 
L 154.019339 196.831604 
L 159.319823 199.299322 
L 164.6203 201.608025 
L 169.92079 203.776658 
L 175.221267 205.81911 
L 180.521757 207.751694 
L 185.822235 209.584829 
L 191.122712 211.327565 
L 196.423202 212.987689 
L 201.723679 214.572041 
L 207.024169 216.086727 
L 212.324646 217.536797 
L 217.625124 218.927302 
L 222.925614 220.262241 
L 228.226091 221.54572 
L 233.526581 222.780578 
L 238.827058 223.969869 
L 244.127536 225.118222 
L 249.428026 226.228269 
L 254.728503 227.302114 
L 260.028993 228.340704 
L 265.32947 229.348671 
L 270.629948 230.326434 
L 275.930425 231.277151 
L 281.230927 232.202611 
L 286.531405 233.103971 
L 291.831882 233.9826 
L 297.132359 234.839656 
L 302.432837 235.6764 
L 307.733339 236.493886 
L 313.033817 237.292535 
L 318.334294 238.073504 
" clip-path="url(#p91ed9ec7ca)" style="fill: none; stroke-dasharray: 3,4.95; stroke-dashoffset: 0; stroke: #ababab; stroke-width: 3"/>
   </g>
   <g id="line2d_22">
    <path d="M 58.610658 112.358393 
L 63.91114 143.068424 
L 69.211623 161.353781 
L 74.512105 173.684162 
L 79.812587 182.742598 
L 85.113071 189.742585 
L 90.413551 195.356278 
L 95.714035 200.018937 
L 101.014515 203.996604 
L 106.314999 207.456398 
L 111.615483 210.507448 
L 116.915966 213.22521 
L 122.216444 215.677563 
L 127.516927 217.910285 
L 132.817411 219.959052 
L 138.117894 221.854592 
L 143.418378 223.616165 
L 148.718855 225.259977 
L 154.019339 226.79992 
L 159.319823 228.247674 
L 164.6203 229.613028 
L 169.92079 230.907346 
L 175.221267 232.137784 
L 180.521757 233.310763 
L 185.822235 234.430492 
L 191.122712 235.503916 
L 196.423202 236.534298 
L 201.723679 237.524373 
L 207.024169 238.477616 
L 212.324646 239.396551 
L 217.625124 240.283389 
L 222.925614 241.141602 
L 228.226091 241.9734 
L 233.526581 242.780468 
L 238.827058 243.564594 
L 244.127536 244.32662 
L 249.428026 245.068019 
L 254.728503 245.79037 
L 260.028993 246.494305 
L 265.32947 247.180875 
L 270.629948 247.851239 
L 275.930425 248.506028 
L 281.230927 249.146294 
L 286.531405 249.772668 
L 291.831882 250.385993 
L 297.132359 250.9869 
L 302.432837 251.575494 
L 307.733339 252.152302 
L 313.033817 252.718691 
L 318.334294 253.274767 
" clip-path="url(#p91ed9ec7ca)" style="fill: none; stroke-dasharray: 3,4.95; stroke-dashoffset: 0; stroke: #838383; stroke-width: 3"/>
   </g>
   <g id="line2d_23">
    <path d="M 58.610658 156.321738 
L 63.91114 171.059534 
L 69.211623 181.333886 
L 74.512105 189.355416 
L 79.812587 195.768283 
L 85.113071 201.018695 
L 90.413551 205.419628 
L 95.714035 209.182821 
L 101.014515 212.456238 
L 106.314999 215.343118 
L 111.615483 217.921335 
L 116.915966 220.249297 
L 122.216444 222.36731 
L 127.516927 224.310523 
L 132.817411 226.105562 
L 138.117894 227.770422 
L 143.418378 229.32415 
L 148.718855 230.780639 
L 154.019339 232.150939 
L 159.319823 233.444099 
L 164.6203 234.669907 
L 169.92079 235.834362 
L 175.221267 236.943883 
L 180.521757 238.00331 
L 185.822235 239.018011 
L 191.122712 239.991144 
L 196.423202 240.926391 
L 201.723679 241.82691 
L 207.024169 242.695015 
L 212.324646 243.533233 
L 217.625124 244.344405 
L 222.925614 245.129899 
L 228.226091 245.891609 
L 233.526581 246.631324 
L 238.827058 247.350097 
L 244.127536 248.049612 
L 249.428026 248.730921 
L 254.728503 249.394549 
L 260.028993 250.041971 
L 265.32947 250.67445 
L 270.629948 251.29251 
L 275.930425 251.897101 
L 281.230927 252.488747 
L 286.531405 253.068185 
L 291.831882 253.635732 
L 297.132359 254.191808 
L 302.432837 254.737149 
L 307.733339 255.272598 
L 313.033817 255.798576 
L 318.334294 256.315293 
" clip-path="url(#p91ed9ec7ca)" style="fill: none; stroke-dasharray: 3,4.95; stroke-dashoffset: 0; stroke: #5f5f5f; stroke-width: 3"/>
   </g>
   <g id="patch_3">
    <path d="M 45.624476 273.312 
L 45.624476 7.2 
" style="fill: none; stroke: #cccccc; stroke-linejoin: miter; stroke-linecap: square"/>
   </g>
   <g id="patch_4">
    <path d="M 331.320476 273.312 
L 331.320476 7.2 
" style="fill: none; stroke: #cccccc; stroke-linejoin: miter; stroke-linecap: square"/>
   </g>
   <g id="patch_5">
    <path d="M 45.624476 273.312 
L 331.320476 273.312 
" style="fill: none; stroke: #cccccc; stroke-linejoin: miter; stroke-linecap: square"/>
   </g>
   <g id="patch_6">
    <path d="M 45.624476 7.2 
L 331.320476 7.2 
" style="fill: none; stroke: #cccccc; stroke-linejoin: miter; stroke-linecap: square"/>
   </g>
   <g id="legend_1">
    <g id="patch_7">
     <path d="M 337.480476 196.767207 
L 444.812274 196.767207 
Q 446.572274 196.767207 446.572274 195.007207 
L 446.572274 85.504793 
Q 446.572274 83.744793 444.812274 83.744793 
L 337.480476 83.744793 
Q 335.720476 83.744793 335.720476 85.504793 
L 335.720476 195.007207 
Q 335.720476 196.767207 337.480476 196.767207 
z
" style="fill: #ffffff; opacity: 0.8; stroke: #cccccc; stroke-width: 0.8; stroke-linejoin: miter"/>
    </g>
    <g id="line2d_24">
     <path d="M 339.240476 90.344793 
L 345.840476 90.344793 
L 352.440476 90.344793 
" style="fill: none; stroke: #000000; stroke-width: 1.5; stroke-linecap: round"/>
    </g>
    <g id="text_17">
     <!-- Fine-scale benchmark -->
     <g style="fill: #262626" transform="translate(359.480476 93.424793) scale(0.088 -0.088)">
      <defs>
       <path id="CMSS17-46" d="M 2918 1984 
L 2918 2373 
L 1101 2373 
L 1101 3968 
L 1882 3968 
C 1958 3968 2035 3968 2112 3968 
L 3168 3968 
L 3168 4375 
L 563 4375 
L 563 -32 
L 1101 -32 
L 1101 1984 
L 2918 1984 
z
" transform="scale(0.015625)"/>
       <path id="CMSS17-2d" d="M 1664 1216 
L 1664 1585 
L 64 1585 
L 64 1216 
L 1664 1216 
z
" transform="scale(0.015625)"/>
       <path id="CMSS17-6b" d="M 1696 1688 
L 2688 2739 
L 2074 2739 
L 954 1554 
L 954 4416 
L 480 4416 
L 480 0 
L 947 0 
L 947 892 
L 1376 1344 
L 2278 0 
L 2822 0 
L 1696 1688 
z
" transform="scale(0.015625)"/>
      </defs>
      <use xlink:href="#CMSS17-46" transform="scale(0.996264)"/>
      <use xlink:href="#CMSS17-69" transform="translate(53.289559 0) scale(0.996264)"/>
      <use xlink:href="#CMSS17-6e" transform="translate(75.470282 0) scale(0.996264)"/>
      <use xlink:href="#CMSS17-65" transform="translate(123.675225 0) scale(0.996264)"/>
      <use xlink:href="#CMSS17-2d" transform="translate(165.314048 0) scale(0.996264)"/>
      <use xlink:href="#CMSS17-73" transform="translate(196.54316 0) scale(0.996264)"/>
      <use xlink:href="#CMSS17-63" transform="translate(232.456702 0) scale(0.996264)"/>
      <use xlink:href="#CMSS17-61" transform="translate(274.095524 0) scale(0.996264)"/>
      <use xlink:href="#CMSS17-6c" transform="translate(319.017445 0) scale(0.996264)"/>
      <use xlink:href="#CMSS17-65" transform="translate(341.198168 0) scale(0.996264)"/>
      <use xlink:href="#CMSS17-62" transform="translate(414.066103 0) scale(0.996264)"/>
      <use xlink:href="#CMSS17-65" transform="translate(464.873485 0) scale(0.996264)"/>
      <use xlink:href="#CMSS17-6e" transform="translate(506.512307 0) scale(0.996264)"/>
      <use xlink:href="#CMSS17-63" transform="translate(554.71725 0) scale(0.996264)"/>
      <use xlink:href="#CMSS17-68" transform="translate(596.356072 0) scale(0.996264)"/>
      <use xlink:href="#CMSS17-6d" transform="translate(644.561015 0) scale(0.996264)"/>
      <use xlink:href="#CMSS17-61" transform="translate(718.79027 0) scale(0.996264)"/>
      <use xlink:href="#CMSS17-72" transform="translate(761.109736 0) scale(0.996264)"/>
      <use xlink:href="#CMSS17-6b" transform="translate(793.019509 0) scale(0.996264)"/>
     </g>
    </g>
    <g id="line2d_25">
     <path d="M 339.240476 102.609506 
L 345.840476 102.609506 
L 352.440476 102.609506 
" style="fill: none; stroke-dasharray: 11.1,4.8; stroke-dashoffset: 0; stroke: #b7d4ea; stroke-width: 3"/>
    </g>
    <g id="text_18">
     <!-- 100x100m NN -->
     <g style="fill: #262626" transform="translate(359.480476 105.689506) scale(0.088 -0.088)">
      <defs>
       <path id="CMSS17-31" d="M 1818 4288 
L 1696 4288 
C 1350 3940 947 3890 538 3890 
L 538 3520 
C 723 3520 1024 3520 1325 3667 
L 1325 369 
L 570 369 
L 570 0 
L 2573 0 
L 2573 369 
L 1818 369 
L 1818 4288 
z
" transform="scale(0.015625)"/>
       <path id="CMSS17-30" d="M 2758 2044 
C 2758 2405 2752 3077 2490 3596 
C 2227 4096 1805 4229 1504 4229 
C 1069 4229 698 3975 506 3570 
C 301 3146 243 2709 243 2044 
C 243 1589 262 1031 493 543 
C 755 5 1197 -128 1498 -128 
C 1894 -128 2278 81 2496 518 
C 2720 974 2758 1474 2758 2044 
z
M 1498 261 
C 1011 261 864 811 819 995 
C 742 1310 730 1614 730 2114 
C 730 2506 730 2948 851 3297 
C 998 3701 1254 3840 1498 3840 
C 1971 3840 2125 3372 2176 3208 
C 2272 2873 2272 2481 2272 2114 
C 2272 1526 2272 261 1498 261 
z
" transform="scale(0.015625)"/>
       <path id="CMSS17-78" d="M 1587 1414 
L 2656 2739 
L 2099 2739 
L 1363 1777 
L 602 2739 
L 32 2739 
L 1139 1414 
L 0 0 
L 563 0 
L 1363 1121 
L 2195 0 
L 2758 0 
L 1587 1414 
z
" transform="scale(0.015625)"/>
       <path id="CMSS17-4e" d="M 1466 4180 
L 1350 4416 
L 563 4416 
L 563 0 
L 1062 0 
L 1062 3926 
L 1069 3932 
C 1114 3817 1139 3760 1402 3194 
L 2771 236 
L 2886 0 
L 3674 0 
L 3674 4416 
L 3174 4416 
L 3174 490 
L 3168 483 
C 3123 598 3098 655 2835 1221 
L 1466 4180 
z
" transform="scale(0.015625)"/>
      </defs>
      <use xlink:href="#CMSS17-31" transform="scale(0.996264)"/>
      <use xlink:href="#CMSS17-30" transform="translate(46.843624 0) scale(0.996264)"/>
      <use xlink:href="#CMSS17-30" transform="translate(93.687247 0) scale(0.996264)"/>
      <use xlink:href="#CMSS17-78" transform="translate(140.530871 0) scale(0.996264)"/>
      <use xlink:href="#CMSS17-31" transform="translate(183.531012 0) scale(0.996264)"/>
      <use xlink:href="#CMSS17-30" transform="translate(230.374636 0) scale(0.996264)"/>
      <use xlink:href="#CMSS17-30" transform="translate(277.218259 0) scale(0.996264)"/>
      <use xlink:href="#CMSS17-6d" transform="translate(324.061883 0) scale(0.996264)"/>
      <use xlink:href="#CMSS17-4e" transform="translate(429.52025 0) scale(0.996264)"/>
      <use xlink:href="#CMSS17-4e" transform="translate(495.581769 0) scale(0.996264)"/>
     </g>
    </g>
    <g id="line2d_26">
     <path d="M 339.240476 114.874218 
L 345.840476 114.874218 
L 352.440476 114.874218 
" style="fill: none; stroke-dasharray: 11.1,4.8; stroke-dashoffset: 0; stroke: #87bddc; stroke-width: 3"/>
    </g>
    <g id="text_19">
     <!-- 50x50m NN -->
     <g style="fill: #262626" transform="translate(359.480476 117.954218) scale(0.088 -0.088)">
      <defs>
       <path id="CMSS17-35" d="M 934 3752 
L 2502 3752 
L 2502 4160 
L 467 4160 
L 467 1781 
L 896 1781 
C 1011 2046 1248 2240 1555 2240 
C 1843 2240 2163 1989 2163 1266 
C 2163 493 1709 267 1376 267 
C 966 267 589 512 422 851 
L 218 499 
C 512 49 992 -128 1376 -128 
C 2118 -128 2701 497 2701 1253 
C 2701 2030 2182 2629 1562 2629 
C 1338 2629 1120 2553 934 2399 
L 934 3752 
z
" transform="scale(0.015625)"/>
      </defs>
      <use xlink:href="#CMSS17-35" transform="scale(0.996264)"/>
      <use xlink:href="#CMSS17-30" transform="translate(46.843624 0) scale(0.996264)"/>
      <use xlink:href="#CMSS17-78" transform="translate(93.687247 0) scale(0.996264)"/>
      <use xlink:href="#CMSS17-35" transform="translate(136.687389 0) scale(0.996264)"/>
      <use xlink:href="#CMSS17-30" transform="translate(183.531012 0) scale(0.996264)"/>
      <use xlink:href="#CMSS17-6d" transform="translate(230.374636 0) scale(0.996264)"/>
      <use xlink:href="#CMSS17-4e" transform="translate(335.833003 0) scale(0.996264)"/>
      <use xlink:href="#CMSS17-4e" transform="translate(401.894522 0) scale(0.996264)"/>
     </g>
    </g>
    <g id="line2d_27">
     <path d="M 339.240476 127.138931 
L 345.840476 127.138931 
L 352.440476 127.138931 
" style="fill: none; stroke-dasharray: 11.1,4.8; stroke-dashoffset: 0; stroke: #549fcd; stroke-width: 3"/>
    </g>
    <g id="text_20">
     <!-- 21x21m NN -->
     <g style="fill: #262626" transform="translate(359.480476 130.218931) scale(0.088 -0.088)">
      <defs>
       <path id="CMSS17-32" d="M 1651 1357 
C 1830 1541 2099 1764 2285 1987 
C 2464 2204 2701 2511 2701 2957 
C 2701 3657 2227 4288 1421 4288 
C 787 4288 422 3893 250 3274 
L 499 2929 
C 640 3510 838 3880 1338 3880 
C 1888 3880 2195 3433 2195 2942 
C 2195 2355 1747 1901 1408 1563 
C 1030 1187 659 804 301 408 
L 301 0 
L 2701 0 
L 2701 433 
L 1613 433 
C 1536 433 1459 433 1382 433 
L 742 433 
L 742 439 
L 1651 1357 
z
" transform="scale(0.015625)"/>
      </defs>
      <use xlink:href="#CMSS17-32" transform="scale(0.996264)"/>
      <use xlink:href="#CMSS17-31" transform="translate(46.843624 0) scale(0.996264)"/>
      <use xlink:href="#CMSS17-78" transform="translate(93.687247 0) scale(0.996264)"/>
      <use xlink:href="#CMSS17-32" transform="translate(136.687389 0) scale(0.996264)"/>
      <use xlink:href="#CMSS17-31" transform="translate(183.531012 0) scale(0.996264)"/>
      <use xlink:href="#CMSS17-6d" transform="translate(230.374636 0) scale(0.996264)"/>
      <use xlink:href="#CMSS17-4e" transform="translate(335.833003 0) scale(0.996264)"/>
      <use xlink:href="#CMSS17-4e" transform="translate(401.894522 0) scale(0.996264)"/>
     </g>
    </g>
    <g id="line2d_28">
     <path d="M 339.240476 139.403644 
L 345.840476 139.403644 
L 352.440476 139.403644 
" style="fill: none; stroke-dasharray: 11.1,4.8; stroke-dashoffset: 0; stroke: #2e7ebc; stroke-width: 3"/>
    </g>
    <g id="text_21">
     <!-- 11x11m NN -->
     <g style="fill: #262626" transform="translate(359.480476 142.483644) scale(0.088 -0.088)">
      <use xlink:href="#CMSS17-31" transform="scale(0.996264)"/>
      <use xlink:href="#CMSS17-31" transform="translate(46.843624 0) scale(0.996264)"/>
      <use xlink:href="#CMSS17-78" transform="translate(93.687247 0) scale(0.996264)"/>
      <use xlink:href="#CMSS17-31" transform="translate(136.687389 0) scale(0.996264)"/>
      <use xlink:href="#CMSS17-31" transform="translate(183.531012 0) scale(0.996264)"/>
      <use xlink:href="#CMSS17-6d" transform="translate(230.374636 0) scale(0.996264)"/>
      <use xlink:href="#CMSS17-4e" transform="translate(335.833003 0) scale(0.996264)"/>
      <use xlink:href="#CMSS17-4e" transform="translate(401.894522 0) scale(0.996264)"/>
     </g>
    </g>
    <g id="line2d_29">
     <path d="M 339.240476 151.668356 
L 345.840476 151.668356 
L 352.440476 151.668356 
" style="fill: none; stroke-dasharray: 3,4.95; stroke-dashoffset: 0; stroke: #cecece; stroke-width: 3"/>
    </g>
    <g id="text_22">
     <!-- 100x100m Peaceman -->
     <g style="fill: #262626" transform="translate(359.480476 154.748356) scale(0.088 -0.088)">
      <defs>
       <path id="CMSS17-50" d="M 2106 1856 
C 2874 1856 3501 2453 3501 3158 
C 3501 3850 2899 4453 2067 4453 
L 570 4453 
L 570 0 
L 1107 0 
L 1107 1856 
L 2106 1856 
z
M 1926 4096 
C 2669 4096 2995 3627 2995 3157 
C 2995 2720 2694 2226 1926 2226 
L 1094 2226 
L 1094 4096 
L 1926 4096 
z
" transform="scale(0.015625)"/>
      </defs>
      <use xlink:href="#CMSS17-31" transform="scale(0.996264)"/>
      <use xlink:href="#CMSS17-30" transform="translate(46.843624 0) scale(0.996264)"/>
      <use xlink:href="#CMSS17-30" transform="translate(93.687247 0) scale(0.996264)"/>
      <use xlink:href="#CMSS17-78" transform="translate(140.530871 0) scale(0.996264)"/>
      <use xlink:href="#CMSS17-31" transform="translate(183.531012 0) scale(0.996264)"/>
      <use xlink:href="#CMSS17-30" transform="translate(230.374636 0) scale(0.996264)"/>
      <use xlink:href="#CMSS17-30" transform="translate(277.218259 0) scale(0.996264)"/>
      <use xlink:href="#CMSS17-6d" transform="translate(324.061883 0) scale(0.996264)"/>
      <use xlink:href="#CMSS17-50" transform="translate(429.52025 0) scale(0.996264)"/>
      <use xlink:href="#CMSS17-65" transform="translate(486.653382 0) scale(0.996264)"/>
      <use xlink:href="#CMSS17-61" transform="translate(528.292204 0) scale(0.996264)"/>
      <use xlink:href="#CMSS17-63" transform="translate(573.214125 0) scale(0.996264)"/>
      <use xlink:href="#CMSS17-65" transform="translate(614.852947 0) scale(0.996264)"/>
      <use xlink:href="#CMSS17-6d" transform="translate(656.491769 0) scale(0.996264)"/>
      <use xlink:href="#CMSS17-61" transform="translate(730.721024 0) scale(0.996264)"/>
      <use xlink:href="#CMSS17-6e" transform="translate(775.642944 0) scale(0.996264)"/>
     </g>
    </g>
    <g id="line2d_30">
     <path d="M 339.240476 163.933069 
L 345.840476 163.933069 
L 352.440476 163.933069 
" style="fill: none; stroke-dasharray: 3,4.95; stroke-dashoffset: 0; stroke: #ababab; stroke-width: 3"/>
    </g>
    <g id="text_23">
     <!-- 50x50m Peaceman -->
     <g style="fill: #262626" transform="translate(359.480476 167.013069) scale(0.088 -0.088)">
      <use xlink:href="#CMSS17-35" transform="scale(0.996264)"/>
      <use xlink:href="#CMSS17-30" transform="translate(46.843624 0) scale(0.996264)"/>
      <use xlink:href="#CMSS17-78" transform="translate(93.687247 0) scale(0.996264)"/>
      <use xlink:href="#CMSS17-35" transform="translate(136.687389 0) scale(0.996264)"/>
      <use xlink:href="#CMSS17-30" transform="translate(183.531012 0) scale(0.996264)"/>
      <use xlink:href="#CMSS17-6d" transform="translate(230.374636 0) scale(0.996264)"/>
      <use xlink:href="#CMSS17-50" transform="translate(335.833003 0) scale(0.996264)"/>
      <use xlink:href="#CMSS17-65" transform="translate(392.966135 0) scale(0.996264)"/>
      <use xlink:href="#CMSS17-61" transform="translate(434.604957 0) scale(0.996264)"/>
      <use xlink:href="#CMSS17-63" transform="translate(479.526878 0) scale(0.996264)"/>
      <use xlink:href="#CMSS17-65" transform="translate(521.1657 0) scale(0.996264)"/>
      <use xlink:href="#CMSS17-6d" transform="translate(562.804522 0) scale(0.996264)"/>
      <use xlink:href="#CMSS17-61" transform="translate(637.033777 0) scale(0.996264)"/>
      <use xlink:href="#CMSS17-6e" transform="translate(681.955697 0) scale(0.996264)"/>
     </g>
    </g>
    <g id="line2d_31">
     <path d="M 339.240476 176.197782 
L 345.840476 176.197782 
L 352.440476 176.197782 
" style="fill: none; stroke-dasharray: 3,4.95; stroke-dashoffset: 0; stroke: #838383; stroke-width: 3"/>
    </g>
    <g id="text_24">
     <!-- 21x21m Peaceman -->
     <g style="fill: #262626" transform="translate(359.480476 179.277782) scale(0.088 -0.088)">
      <use xlink:href="#CMSS17-32" transform="scale(0.996264)"/>
      <use xlink:href="#CMSS17-31" transform="translate(46.843624 0) scale(0.996264)"/>
      <use xlink:href="#CMSS17-78" transform="translate(93.687247 0) scale(0.996264)"/>
      <use xlink:href="#CMSS17-32" transform="translate(136.687389 0) scale(0.996264)"/>
      <use xlink:href="#CMSS17-31" transform="translate(183.531012 0) scale(0.996264)"/>
      <use xlink:href="#CMSS17-6d" transform="translate(230.374636 0) scale(0.996264)"/>
      <use xlink:href="#CMSS17-50" transform="translate(335.833003 0) scale(0.996264)"/>
      <use xlink:href="#CMSS17-65" transform="translate(392.966135 0) scale(0.996264)"/>
      <use xlink:href="#CMSS17-61" transform="translate(434.604957 0) scale(0.996264)"/>
      <use xlink:href="#CMSS17-63" transform="translate(479.526878 0) scale(0.996264)"/>
      <use xlink:href="#CMSS17-65" transform="translate(521.1657 0) scale(0.996264)"/>
      <use xlink:href="#CMSS17-6d" transform="translate(562.804522 0) scale(0.996264)"/>
      <use xlink:href="#CMSS17-61" transform="translate(637.033777 0) scale(0.996264)"/>
      <use xlink:href="#CMSS17-6e" transform="translate(681.955697 0) scale(0.996264)"/>
     </g>
    </g>
    <g id="line2d_32">
     <path d="M 339.240476 188.462494 
L 345.840476 188.462494 
L 352.440476 188.462494 
" style="fill: none; stroke-dasharray: 3,4.95; stroke-dashoffset: 0; stroke: #5f5f5f; stroke-width: 3"/>
    </g>
    <g id="text_25">
     <!-- 11x11m Peaceman -->
     <g style="fill: #262626" transform="translate(359.480476 191.542494) scale(0.088 -0.088)">
      <use xlink:href="#CMSS17-31" transform="scale(0.996264)"/>
      <use xlink:href="#CMSS17-31" transform="translate(46.843624 0) scale(0.996264)"/>
      <use xlink:href="#CMSS17-78" transform="translate(93.687247 0) scale(0.996264)"/>
      <use xlink:href="#CMSS17-31" transform="translate(136.687389 0) scale(0.996264)"/>
      <use xlink:href="#CMSS17-31" transform="translate(183.531012 0) scale(0.996264)"/>
      <use xlink:href="#CMSS17-6d" transform="translate(230.374636 0) scale(0.996264)"/>
      <use xlink:href="#CMSS17-50" transform="translate(335.833003 0) scale(0.996264)"/>
      <use xlink:href="#CMSS17-65" transform="translate(392.966135 0) scale(0.996264)"/>
      <use xlink:href="#CMSS17-61" transform="translate(434.604957 0) scale(0.996264)"/>
      <use xlink:href="#CMSS17-63" transform="translate(479.526878 0) scale(0.996264)"/>
      <use xlink:href="#CMSS17-65" transform="translate(521.1657 0) scale(0.996264)"/>
      <use xlink:href="#CMSS17-6d" transform="translate(562.804522 0) scale(0.996264)"/>
      <use xlink:href="#CMSS17-61" transform="translate(637.033777 0) scale(0.996264)"/>
      <use xlink:href="#CMSS17-6e" transform="translate(681.955697 0) scale(0.996264)"/>
     </g>
    </g>
   </g>
  </g>
 </g>
 <defs>
  <clipPath id="p91ed9ec7ca">
   <rect x="45.624476" y="7.2" width="285.696" height="266.112"/>
  </clipPath>
 </defs>
</svg>
